<svg width="293" height="54" viewBox="0 0 293 54" fill="none" xmlns="http://www.w3.org/2000/svg">
<g clip-path="url(#clip0_422_5194)">
<path d="M256.486 50.991C256.489 51.2304 256.466 51.4693 256.417 51.7037C256.38 51.9012 256.313 52.092 256.219 52.2694C256.142 52.4145 256.032 52.5402 255.899 52.6367C255.769 52.7235 255.615 52.7684 255.459 52.7653V53.8269C255.905 53.844 256.346 53.7234 256.721 53.4816C257.06 53.2399 257.316 52.9001 257.455 52.5081C257.621 52.0466 257.702 51.5587 257.694 51.0681V47.6261H260.63V53.8269H261.888V46.48H256.486V50.991Z" fill="black"/>
<path d="M264.391 46.4912V53.8345H268.853V52.7435H265.606V50.4328H268.644V49.3639H265.606V47.5822H268.853V46.4912H264.391Z" fill="black"/>
<path d="M270.651 46.4912V47.6337H272.593V53.8345H273.829V47.6337H275.767V46.4912H270.651Z" fill="black"/>
<path d="M66.2898 16.1738H67.7577C68.3433 16.1817 68.9231 16.0561 69.4531 15.8064C69.9322 15.5828 70.3399 15.2306 70.6311 14.7889C70.9308 14.3258 71.0842 13.783 71.0714 13.2313C71.0859 12.6783 70.9323 12.1339 70.6311 11.6701C70.3357 11.2303 69.9258 10.8797 69.4458 10.6562C68.9152 10.4083 68.3358 10.2828 67.7503 10.2889H66.2825V7.49706H70.3191V6.39502H65.1045V16.1664H66.2898V16.1738ZM67.7577 11.4277C68.1342 11.4237 68.508 11.4923 68.8586 11.6297C69.1573 11.7572 69.4123 11.9691 69.5925 12.2395C69.7818 12.5388 69.8765 12.8883 69.8641 13.2424C69.8759 13.5975 69.7813 13.948 69.5925 14.2489C69.411 14.5172 69.1562 14.7276 68.8586 14.855C68.5086 14.9946 68.1344 15.0633 67.7577 15.0571H66.2898V11.4277H67.7577Z" fill="black"/>
<path d="M79.7316 16.1741H80.9169V5.91406L73.5261 13.6761V6.40263H72.3408V16.6626L79.7316 8.90059V16.1741Z" fill="black"/>
<path d="M84.0364 16.1738H85.5043C86.09 16.1817 86.6697 16.0561 87.1997 15.8064C87.6748 15.5811 88.0785 15.229 88.3667 14.7889C88.6664 14.3258 88.8198 13.783 88.807 13.2313C88.8215 12.6783 88.6679 12.1339 88.3667 11.6701C88.0713 11.2303 87.6614 10.8797 87.1814 10.6562C86.6508 10.4083 86.0714 10.2828 85.486 10.2889H84.0181V7.49706H88.0547V6.39502H82.8364V16.1664H84.0364V16.1738ZM85.5043 11.4277C85.8808 11.4237 86.2546 11.4923 86.6052 11.6297C86.9039 11.7572 87.1589 11.9691 87.3392 12.2395C87.5285 12.5388 87.6231 12.8883 87.6107 13.2424C87.6225 13.5975 87.5279 13.948 87.3392 14.2489C87.1576 14.5172 86.9029 14.7276 86.6052 14.855C86.2552 14.9946 85.881 15.0633 85.5043 15.0571H84.0364V11.4277H85.5043Z" fill="black"/>
<path d="M91.4749 14.4881C91.6591 13.9529 91.7509 13.3902 91.7464 12.8241V7.51957H96.0693V16.1743H97.2473V6.40283H90.6418V12.5449C90.6435 12.8907 90.6153 13.2361 90.5574 13.5771C90.5111 13.8648 90.4272 14.1452 90.3079 14.411C90.2126 14.6214 90.0737 14.8092 89.9006 14.962C89.7436 15.0912 89.5459 15.1602 89.3428 15.1567V16.1743C89.8281 16.1901 90.3022 16.0266 90.6749 15.7151C91.0443 15.3833 91.3202 14.9602 91.4749 14.4881Z" fill="black"/>
<path d="M106.557 16.1741H107.743V5.91406L100.352 13.6761V6.40263H99.1665V16.6626L106.557 8.90059V16.1741Z" fill="black"/>
<path d="M116.029 15.9318C116.616 15.684 117.15 15.3233 117.599 14.8702C118.05 14.4132 118.403 13.8696 118.638 13.2722C119.131 11.9945 119.131 10.5788 118.638 9.30118C118.402 8.70669 118.048 8.16578 117.599 7.71057C117.15 7.25744 116.616 6.89677 116.029 6.64894C114.766 6.1346 113.353 6.1346 112.091 6.64894C111.501 6.8949 110.966 7.25577 110.517 7.71057C110.068 8.16578 109.715 8.70669 109.478 9.30118C109.227 9.93314 109.102 10.6084 109.111 11.2885C109.103 11.9674 109.228 12.6412 109.478 13.2722C109.713 13.8696 110.066 14.4132 110.517 14.8702C110.966 15.325 111.501 15.6858 112.091 15.9318C113.354 16.4411 114.765 16.4411 116.029 15.9318ZM110.843 13.2575C110.517 12.6534 110.351 11.9753 110.363 11.2885C110.351 10.6029 110.517 9.92596 110.843 9.32322C111.089 8.89639 111.417 8.52229 111.807 8.22235C112.198 7.92241 112.644 7.70251 113.119 7.57523C113.595 7.44796 114.091 7.41582 114.578 7.48064C115.066 7.54547 115.537 7.70599 115.963 7.95302C116.513 8.28658 116.966 8.75911 117.276 9.32322C117.603 9.92596 117.769 10.6029 117.757 11.2885C117.769 11.9753 117.603 12.6534 117.276 13.2575C116.966 13.8216 116.513 14.2942 115.963 14.6277C115.383 14.9551 114.729 15.1271 114.064 15.1271C113.398 15.1271 112.744 14.9551 112.164 14.6277C111.61 14.2967 111.154 13.8237 110.843 13.2575Z" fill="black"/>
<path d="M121.563 16.1743H122.748V7.51957H125.258V6.40283H119.053V7.51957H121.563V16.1743Z" fill="black"/>
<path d="M131.9 15.0575H127.508V11.4281H131.621V10.3114H127.508V7.51957H131.9V6.40283H127.508H126.975H126.322V16.1743H126.975H127.508H131.9V15.0575Z" fill="black"/>
<path d="M134.678 11.8285C135.162 12.1327 135.726 12.2849 136.296 12.2657H138.528V16.1743H139.713V6.40283H138.528V11.2188H136.296C135.938 11.2311 135.586 11.1238 135.295 10.9139C135.016 10.7025 134.803 10.4175 134.678 10.091C134.539 9.72511 134.471 9.33623 134.476 8.94487V6.40283H133.375V8.94487C133.367 9.5246 133.479 10.0998 133.702 10.6347C133.905 11.1189 134.244 11.5336 134.678 11.8285Z" fill="black"/>
<path d="M148.182 10.3114H142.814V6.40283H141.628V16.1743H142.814V11.4281H148.182V16.1743H149.368V6.40283H148.182V10.3114Z" fill="black"/>
<path d="M150.403 16.1741H151.728L152.968 13.2353H156.898L158.142 16.1741H159.467L154.935 5.91406L150.403 16.1741ZM156.432 12.1332H153.445L154.935 8.61774L156.432 12.1332Z" fill="black"/>
<path d="M165.937 6.40244H163.944C163.361 6.3983 162.785 6.52377 162.256 6.76979C161.773 6.9921 161.361 7.3428 161.063 7.78367C160.762 8.24747 160.609 8.79186 160.623 9.34489C160.61 9.89662 160.763 10.4395 161.063 10.9024C161.358 11.3463 161.771 11.6988 162.256 11.92C162.479 12.0259 162.713 12.1072 162.953 12.1624L160.04 16.2033H161.507L164.223 12.2947H165.412V16.1739H166.605V6.40244H165.937ZM163.944 11.2184C163.566 11.2241 163.19 11.149 162.843 10.998C162.537 10.8586 162.276 10.6358 162.091 10.3551C161.902 10.0487 161.808 9.69356 161.819 9.33387C161.809 8.97542 161.903 8.62169 162.091 8.31632C162.276 8.03559 162.537 7.8128 162.843 7.67346C163.19 7.52118 163.565 7.44478 163.944 7.44938H165.412V11.2184H163.944Z" fill="black"/>
<path d="M68.587 21.71L64.0586 31.97H65.3834L66.62 29.0312H70.5503L71.7943 31.97H73.1191L68.587 21.71ZM70.0916 27.9218H67.1044L68.5943 24.4063L70.0916 27.9218Z" fill="black"/>
<path d="M76.2638 23.7341C76.8021 23.4092 77.4188 23.2377 78.0473 23.2382C78.4798 23.2341 78.9105 23.2961 79.3244 23.4218C79.6954 23.5404 80.0466 23.7138 80.3666 23.9361C80.6775 24.1494 80.9536 24.4096 81.1849 24.7076V23.1353C80.7928 22.7836 80.3385 22.5082 79.8455 22.3235C79.2658 22.1323 78.6574 22.0428 78.0473 22.059C77.3943 22.0533 76.7468 22.1782 76.1427 22.4263C75.56 22.6669 75.032 23.023 74.5904 23.4733C74.1385 23.9319 73.7829 24.4765 73.5446 25.0749C73.0392 26.3667 73.0392 27.8019 73.5446 29.0937C73.7821 29.6914 74.1379 30.2349 74.5904 30.6916C75.032 31.1419 75.56 31.498 76.1427 31.7386C76.7468 31.9867 77.3943 32.1116 78.0473 32.1059C78.6574 32.1221 79.2658 32.0326 79.8455 31.8414C80.3384 31.658 80.7927 31.3839 81.1849 31.0333V29.4831C80.9508 29.7679 80.6748 30.0156 80.3666 30.2178C80.0449 30.4408 79.6909 30.613 79.317 30.7284C78.9029 30.8528 78.4723 30.9135 78.04 30.9084C77.4119 30.9129 76.7947 30.7438 76.2565 30.4198C75.7036 30.0916 75.2447 29.6259 74.9244 29.068C74.5897 28.4545 74.4143 27.7667 74.4143 27.0678C74.4143 26.3688 74.5897 25.681 74.9244 25.0676C75.2499 24.5159 75.711 24.0569 76.2638 23.7341Z" fill="black"/>
<path d="M83.6324 30.6916C84.076 31.1411 84.6051 31.4971 85.1884 31.7386C85.7913 31.9863 86.4376 32.1112 87.0893 32.1059C87.7006 32.1221 88.3102 32.0326 88.8911 31.8414C89.3829 31.658 89.836 31.3839 90.2269 31.0333V29.4831C89.9983 29.7764 89.726 30.0329 89.4196 30.2435C89.0966 30.4666 88.7414 30.6388 88.3664 30.7541C87.9523 30.8788 87.5217 30.9395 87.0893 30.9341C86.4613 30.9377 85.8445 30.7687 85.3058 30.4455C84.7545 30.1152 84.2961 29.65 83.9737 29.0937C83.639 28.4802 83.4636 27.7924 83.4636 27.0935C83.4636 26.3945 83.639 25.7067 83.9737 25.0933C84.2973 24.5388 84.7555 24.075 85.3058 23.7451C85.8433 23.4172 86.4599 23.242 87.0893 23.2382C87.5218 23.2339 87.9525 23.2958 88.3664 23.4218C88.7407 23.5374 89.0956 23.7083 89.4196 23.9288C89.726 24.1394 89.9983 24.3958 90.2269 24.6892V23.1353C89.8361 22.7837 89.3831 22.5083 88.8911 22.3235C88.3102 22.1323 87.7006 22.0428 87.0893 22.059C86.4376 22.0537 85.7913 22.1786 85.1884 22.4263C84.6051 22.6678 84.076 23.0238 83.6324 23.4733C83.1805 23.9319 82.8249 24.4765 82.5866 25.0749C82.0812 26.3667 82.0812 27.8019 82.5866 29.0937C82.8241 29.6914 83.1799 30.2349 83.6324 30.6916Z" fill="black"/>
<path d="M91.1006 31.97H92.4253L93.662 29.0312H97.6143L98.8583 31.97H100.183L95.6327 21.71L91.1006 31.97ZM97.1262 27.9291H94.1391L95.6327 24.4136L97.1262 27.9291Z" fill="black"/>
<path d="M109.273 25.3687L109.996 31.97H111.181L109.996 21.71L106.091 28.7887L102.187 21.71L101.005 31.97H102.187L102.913 25.3687L106.091 31.0626L109.273 25.3687Z" fill="black"/>
<path d="M117.016 31.6139C117.499 31.3874 117.909 31.0313 118.201 30.5853C118.499 30.1215 118.652 29.579 118.638 29.0277C118.654 28.475 118.502 27.9305 118.201 27.4665C117.906 27.0265 117.496 26.6759 117.016 26.4526C116.486 26.2038 115.906 26.0782 115.321 26.0853H113.853V23.2934H117.889V22.1914H112.66V31.9628H115.31C115.898 31.9774 116.481 31.858 117.016 31.6139ZM113.856 27.2057H115.324C115.701 27.2004 116.075 27.2691 116.425 27.4077C116.732 27.5302 116.994 27.7428 117.178 28.0175C117.37 28.3157 117.466 28.6658 117.453 29.0204C117.465 29.3761 117.369 29.7271 117.178 30.0269C116.993 30.2996 116.731 30.5107 116.425 30.633C116.075 30.7734 115.701 30.8421 115.324 30.8351H113.856V27.2057Z" fill="black"/>
<path d="M120.531 28.3408C120.534 28.6865 120.507 29.0319 120.451 29.373C120.404 29.6598 120.318 29.9391 120.197 30.2032C120.106 30.4158 119.968 30.6053 119.794 30.7579C119.637 30.8868 119.439 30.9558 119.236 30.9526V31.9702C119.721 31.9853 120.195 31.8219 120.568 31.511C120.941 31.1795 121.22 30.7549 121.375 30.2804C121.561 29.7468 121.653 29.185 121.647 28.62V23.3155H125.97V31.9702H127.155V22.1987H120.531V28.3408Z" fill="black"/>
<path d="M129.798 22.1987H129.141V31.9702H129.798H130.326H134.719V30.8534H130.326V27.224H134.44V26.1073H130.326V23.3155H134.719V22.1987H130.326H129.798Z" fill="black"/>
<path d="M141.159 22.1984H139.691C139.109 22.1925 138.533 22.3181 138.007 22.5658C137.524 22.7881 137.111 23.1388 136.814 23.5797C136.526 24.0488 136.374 24.5885 136.374 25.1391C136.374 25.6896 136.526 26.2294 136.814 26.6984C137.109 27.1423 137.522 27.4948 138.007 27.716C138.229 27.8201 138.461 27.9002 138.7 27.9548L135.79 31.9956H137.258L139.973 28.087H141.159V31.9699H142.344V22.1984H141.159ZM139.691 27.0144C139.312 27.0213 138.936 26.9448 138.59 26.7903C138.29 26.6506 138.036 26.429 137.856 26.1511C137.678 25.8409 137.584 25.4894 137.584 25.1317C137.584 24.774 137.678 24.4225 137.856 24.1123C138.037 23.8342 138.291 23.6117 138.59 23.4695C138.937 23.3166 139.312 23.2402 139.691 23.2454H141.159V27.0144H139.691Z" fill="black"/>
<path d="M65.7577 37.9946H65.1045V47.7661H65.7577H66.2861H70.6788V46.6493H66.2861V43.0199H70.3999V41.9032H66.2861V39.1114H70.6788V37.9946H66.2861H65.7577Z" fill="black"/>
<path d="M77.2948 42.9428C76.9753 42.7263 76.6199 42.5683 76.2452 42.4763C76.1792 42.4579 76.1095 42.4543 76.0471 42.4396C76.1388 42.4102 76.2342 42.3845 76.3186 42.3514C76.7193 42.2082 77.0707 41.9533 77.3315 41.6167C77.5798 41.2774 77.7089 40.8654 77.6984 40.4449C77.7179 39.9603 77.5899 39.4812 77.3315 39.071C77.0832 38.7062 76.73 38.4256 76.3186 38.2665C75.8317 38.08 75.3132 37.9901 74.792 38.002H72.293V47.7734H74.9425C75.5231 47.7828 76.0996 47.6754 76.6379 47.4575C77.1165 47.2635 77.5284 46.9341 77.8232 46.5098C78.1317 46.0356 78.2856 45.4773 78.2636 44.9118C78.2742 44.5112 78.1873 44.1141 78.0104 43.7547C77.8458 43.4268 77.5993 43.1471 77.2948 42.9428ZM74.792 39.0343C75.2316 39.0137 75.665 39.1432 76.0214 39.4016C76.1851 39.5326 76.3149 39.7012 76.3998 39.893C76.4848 40.0848 76.5224 40.2942 76.5095 40.5037C76.5167 40.7813 76.4385 41.0544 76.2856 41.2861C76.1308 41.503 75.9186 41.6722 75.6728 41.7747C75.3933 41.8885 75.0937 41.9448 74.792 41.94H73.4673V39.0343H74.792ZM76.7957 45.8449C76.6107 46.1275 76.3483 46.3507 76.0397 46.4877C75.6938 46.6428 75.3178 46.7193 74.9388 46.7118H73.4709V42.9796H74.9388C75.2318 42.9753 75.5237 43.0149 75.8049 43.0971C76.0527 43.1719 76.2826 43.2969 76.4801 43.4645C76.6705 43.622 76.8214 43.822 76.9205 44.0486C77.0267 44.3006 77.0792 44.5721 77.0746 44.8457C77.0809 45.2012 76.984 45.5508 76.7957 45.8522V45.8449Z" fill="black"/>
<path d="M85.7501 40.9257C85.7644 40.3716 85.6109 39.826 85.3098 39.3608C85.0152 38.9212 84.605 38.5716 84.1245 38.3506C83.5945 38.101 83.0147 37.9754 82.4291 37.9833H79.7832V47.7547H80.9685V43.8571H82.4364C83.0221 43.865 83.6018 43.7394 84.1318 43.4898C84.6128 43.2661 85.023 42.9141 85.3171 42.4722C85.6117 42.0112 85.7624 41.4728 85.7501 40.9257ZM83.9703 42.2812C83.523 42.6039 82.9798 42.7658 82.4291 42.7404H80.9612V39.111H82.4291C82.9788 39.0853 83.5213 39.2443 83.9703 39.5629C84.1595 39.735 84.3107 39.9448 84.4142 40.1789C84.5176 40.413 84.5711 40.6661 84.5711 40.922C84.5711 41.178 84.5176 41.4311 84.4142 41.6652C84.3107 41.8992 84.1595 42.1091 83.9703 42.2812Z" fill="black"/>
<path d="M85.229 47.7659H86.5538L87.7905 44.8271H91.7207L92.9684 47.7659H94.3115L89.7611 37.5059L85.229 47.7659ZM91.2547 43.725H88.2675L89.7611 40.2059L91.2547 43.725Z" fill="black"/>
<path d="M99.9409 42.7408C99.8602 42.715 99.7721 42.6967 99.6914 42.6746C100.009 42.565 100.309 42.4103 100.583 42.2154C100.882 42.0071 101.132 41.7364 101.317 41.422C101.487 41.1273 101.576 40.7925 101.574 40.4522C101.579 39.997 101.451 39.5503 101.207 39.1665C100.938 38.7616 100.567 38.4348 100.132 38.2187C99.612 37.962 99.0377 37.8359 98.4583 37.8514C97.8909 37.8409 97.3278 37.9524 96.807 38.1783C96.3666 38.375 95.9866 38.6857 95.7061 39.0783C95.4381 39.4732 95.2996 39.9418 95.3097 40.4191H96.44C96.437 40.1404 96.5303 39.8691 96.7042 39.6514C96.8985 39.4139 97.1515 39.2315 97.4382 39.1224C97.7726 38.9872 98.1308 38.921 98.4914 38.9277C98.8524 38.9153 99.2118 38.9817 99.5446 39.1224C99.8089 39.2345 100.031 39.4273 100.179 39.6734C100.322 39.9212 100.394 40.2031 100.389 40.4889C100.39 40.7935 100.292 41.0902 100.11 41.3338C99.9005 41.6072 99.6216 41.8191 99.3024 41.9473C98.8896 42.1121 98.4475 42.1908 98.0033 42.1787V43.2257C98.4663 43.2176 98.9275 43.2859 99.3684 43.4277C99.7339 43.5406 100.062 43.75 100.319 44.0338C100.554 44.3153 100.678 44.6734 100.668 45.0403C100.677 45.2793 100.633 45.5172 100.539 45.7371C100.445 45.9569 100.303 46.1531 100.124 46.3114C99.6307 46.6659 99.0274 46.8339 98.4217 46.7852C97.9912 46.7993 97.5622 46.7281 97.1593 46.5759C96.8597 46.4594 96.599 46.2608 96.407 46.0028C96.2351 45.7594 96.1277 45.4762 96.0951 45.1799H94.8951C94.8928 45.5485 94.9704 45.9132 95.1226 46.2489C95.2745 46.5831 95.4989 46.8793 95.7795 47.1159C96.1059 47.3782 96.4796 47.5752 96.8804 47.6963C97.373 47.8438 97.8855 47.9144 98.3996 47.9056C99.0362 47.923 99.6694 47.8092 100.26 47.5714C100.74 47.3784 101.153 47.0473 101.445 46.6199C101.725 46.1941 101.868 45.6931 101.856 45.1836C101.885 44.614 101.702 44.054 101.343 43.6114C100.964 43.1976 100.479 42.8963 99.9409 42.7408Z" fill="black"/>
<path d="M104.557 37.9944H103.372V48.2544L110.763 40.4924V47.7659H111.948V37.5059L104.557 45.2679V37.9944Z" fill="black"/>
<path d="M115.122 37.9944H113.94V48.2544L121.328 40.4924V47.7659H122.513V37.5059L115.122 45.2679V37.9944Z" fill="black"/>
<path d="M25.996 46.4214C20.8196 46.4979 15.6743 47.2386 10.686 48.6255C15.3848 52.1859 21.1189 54.1084 27.012 54.0991C32.9051 54.0898 38.6332 52.1493 43.3207 48.574C38.0586 47.1372 32.6283 46.4107 27.174 46.414C26.7887 46.4104 26.385 46.414 25.996 46.4214Z" fill="black"/>
<path d="M14.7267 3.03418C11.3293 4.76834 8.33773 7.20368 5.94918 10.1797C3.56063 13.1556 1.82938 16.6046 0.869567 20.2992C-0.0902411 23.9938 -0.256802 27.8502 0.380866 31.6139C1.01853 35.3777 2.44595 38.9634 4.56899 42.1346L14.7267 3.03418Z" fill="black"/>
<path d="M29.7247 0.246094L23.6733 23.6755C24.7743 23.6167 25.8495 23.58 26.9504 23.58C28.3498 23.58 29.7369 23.6277 31.1118 23.7232C39.0047 24.2551 46.7158 26.3371 53.8053 29.8506C53.8933 28.9506 53.941 28.0359 53.941 27.1102C53.9432 20.4258 51.468 13.9783 46.9945 9.0157C42.521 4.05308 36.3673 0.928265 29.7247 0.246094Z" fill="black"/>
<path d="M53.35 32.7413C53.1738 33.5752 52.9573 34.3944 52.7078 35.1989C48.1169 33.0413 43.2726 31.4713 38.2895 30.5262C34.5502 29.8277 30.7541 29.4785 26.9501 29.483C23.3174 29.4803 19.6918 29.8049 16.1172 30.4528L23.9153 0.275215C24.8995 0.159368 25.8895 0.0992721 26.8804 0.0952148L19.9814 27.1026C24.6723 26.5663 29.4095 26.5737 34.0987 27.1246C38.9116 27.689 43.6391 28.8311 48.1794 30.5262C49.9433 31.1875 51.6668 31.9258 53.35 32.7413Z" fill="black"/>
<path d="M51.0567 39.2582C50.6279 40.1053 50.1551 40.9292 49.6402 41.7268C49.0127 41.4733 48.3778 41.2272 47.743 40.9921L47.0274 40.7349C40.5745 38.476 33.7865 37.3259 26.9504 37.3333C24.8263 37.3326 22.7037 37.4417 20.5908 37.6603C19.9633 37.7301 19.3395 37.8035 18.7119 37.888L17.4789 38.068L16.8624 38.1672C13.8025 38.6821 10.7869 39.4325 7.84229 40.4117L17.8606 1.67495C18.8908 1.30705 19.9422 1.00159 21.0092 0.760254L11.8826 36.1652C24.9226 32.8258 38.701 33.9137 51.0567 39.2582Z" fill="black"/>
<path d="M241.903 46.3039C240.271 48.3358 238.152 49.9207 235.742 50.9104C232.913 52.141 229.441 52.7471 225.43 52.7471C222.739 52.7874 220.064 52.3394 217.533 51.4247C215.416 50.6511 213.48 49.4528 211.842 47.9033C210.205 46.3538 208.9 44.4857 208.01 42.4136C207.256 40.6694 206.827 38.802 206.744 36.9034H217.408C217.453 38.2539 217.854 39.5683 218.571 40.7128C219.343 41.9076 220.455 42.8431 221.764 43.3981C223.057 43.9565 224.451 44.2429 225.859 44.2394C227.228 44.2653 228.589 44.0309 229.87 43.5488C231.042 43.0898 232.039 42.2738 232.722 41.2161C233.7 39.696 234.055 37.857 233.713 36.0816C233.371 34.3062 232.359 32.731 230.887 31.6834C229.811 30.9328 228.602 30.3965 227.324 30.1039C225.927 29.775 224.498 29.6013 223.063 29.5859V23.0177C224.193 22.9828 225.312 22.7949 226.391 22.4594C227.516 22.1144 228.575 21.5843 229.525 20.8908C230.391 20.2668 231.104 19.4557 231.613 18.5177C232.094 17.6298 232.346 16.6364 232.347 15.6267C232.359 14.612 232.106 13.6118 231.613 12.7247C231.124 11.848 230.377 11.1429 229.474 10.7043C228.387 10.2081 227.2 9.97169 226.006 10.0136C224.115 9.95451 222.27 10.6102 220.839 11.8504C220.239 12.373 219.747 13.0095 219.394 13.7233C219.041 14.437 218.832 15.2138 218.781 16.0087H208.902C208.969 13.517 209.688 11.0865 210.986 8.95936C212.433 6.64148 214.498 4.77485 216.949 3.57038C219.518 2.25528 222.579 1.58671 226.006 1.58671C229.676 1.58671 232.824 2.1965 235.364 3.39773C237.687 4.43026 239.675 6.09506 241.1 8.20262C241.221 8.38997 241.331 8.56997 241.437 8.77201C241.72 8.40467 242.006 8.07405 242.303 7.73242C242.256 7.65895 242.215 7.58181 242.171 7.51201C240.747 5.30793 238.637 3.53732 235.903 2.24426C233.169 0.951195 229.867 0.312012 226.006 0.312012C222.373 0.312012 219.133 1.02466 216.373 2.4316C213.717 3.74082 211.478 5.7646 209.907 8.27609C208.376 10.7891 207.581 13.6824 207.614 16.6259V17.2651H220.032V16.6259C220.003 15.9037 220.137 15.1843 220.423 14.5206C220.708 13.8569 221.139 13.2658 221.683 12.7908C222.821 11.7843 224.234 11.2957 226.006 11.2957C226.995 11.2599 227.979 11.4495 228.883 11.8504C229.557 12.175 230.114 12.6996 230.48 13.3528C230.865 14.0491 231.06 14.8347 231.045 15.6304C231.041 16.4301 230.839 17.2165 230.458 17.919C230.038 18.6888 229.45 19.3533 228.736 19.8622C227.899 20.4717 226.966 20.9384 225.977 21.2434C224.822 21.6 223.619 21.7772 222.41 21.7687H221.771V30.8716H222.41C223.954 30.8492 225.495 31.012 227.001 31.3565C228.118 31.6101 229.177 32.0752 230.12 32.7267C231.289 33.6121 232.091 34.8975 232.373 36.3374C232.656 37.7773 232.398 39.2709 231.65 40.5328C231.115 41.3707 230.325 42.0145 229.397 42.3696C228.267 42.7931 227.066 42.9975 225.859 42.972C224.624 42.9766 223.401 42.7265 222.267 42.2373C221.187 41.7877 220.27 41.0187 219.639 40.0332C218.956 38.905 218.616 37.6013 218.663 36.2826V35.6398H205.452V36.279C205.453 38.5679 205.924 40.8323 206.836 42.9316C207.793 45.1611 209.196 47.171 210.958 48.8381C212.72 50.5051 214.804 51.7941 217.081 52.6259C219.756 53.5964 222.585 54.0731 225.43 54.0328C229.617 54.0328 233.257 53.3753 236.248 52.0749C238.775 51.0318 241.009 49.386 242.755 47.281C242.461 46.9651 242.179 46.6381 241.903 46.3039Z" fill="black"/>
<path d="M290.938 16.174C289.606 12.9489 287.623 10.0337 285.114 7.61117C282.583 5.19117 279.597 3.29935 276.329 2.04587C269.254 -0.555002 261.487 -0.555002 254.413 2.04587C251.125 3.28899 248.119 5.18163 245.576 7.61117C243.06 10.0365 241.063 12.9485 239.705 16.1704C238.277 19.6229 237.563 23.3293 237.606 27.0659C237.568 30.8163 238.256 34.5386 239.632 38.0275C241.875 43.6906 246.075 48.3596 251.466 51.1859V49.7165C246.624 47.0035 242.865 42.701 240.824 37.5353C239.515 34.202 238.861 30.6472 238.898 27.0659C238.856 23.5012 239.535 19.965 240.894 16.6699C242.176 13.6142 244.064 10.8501 246.442 8.54423C248.864 6.22842 251.725 4.4233 254.857 3.23607C261.635 0.75281 269.073 0.75281 275.851 3.23607C278.97 4.4282 281.819 6.23303 284.229 8.54423C286.612 10.8412 288.495 13.6064 289.76 16.6663C291.103 19.9668 291.777 23.502 291.741 27.0659C291.776 30.6583 291.115 34.2235 289.796 37.5646C287.749 42.7416 283.976 47.0505 279.118 49.7606V51.2299C284.521 48.4041 288.73 43.7292 290.978 38.0569C292.352 34.5676 293.038 30.8454 293 27.0953C293.046 23.3537 292.345 19.6406 290.938 16.174Z" fill="black"/>
<path d="M278.339 18.8996C277.191 16.5804 275.41 14.6342 273.202 13.2866C271 11.9347 268.351 11.2478 265.323 11.2478C262.571 11.1869 259.857 11.8914 257.481 13.2829C255.259 14.6313 253.459 16.5758 252.285 18.8959C251.027 21.4325 250.398 24.2346 250.45 27.0657C250.398 29.8981 251.027 32.7014 252.285 35.2392C253.46 37.5681 255.266 39.5194 257.496 40.8706C259.881 42.2052 262.568 42.9058 265.301 42.9058C268.034 42.9058 270.721 42.2052 273.106 40.8706C275.327 39.5207 277.127 37.5766 278.303 35.2576C279.56 32.7197 280.189 29.9164 280.138 27.0841C280.193 24.252 279.577 21.4472 278.339 18.8996ZM277.169 34.6551C276.102 36.7672 274.466 38.5384 272.446 39.7686C270.291 41.0261 267.831 41.6619 265.338 41.6053C262.82 41.6682 260.335 41.0325 258.156 39.7686C256.135 38.5426 254.499 36.7734 253.433 34.6625C252.268 32.3032 251.687 29.6973 251.742 27.0657C251.688 24.4382 252.267 21.8364 253.43 19.48C254.498 17.3706 256.134 15.6021 258.152 14.3739C260.331 13.11 262.817 12.4743 265.334 12.5372C268.123 12.5372 270.549 13.158 272.545 14.3739C274.545 15.6029 276.157 17.3714 277.198 19.4763C278.339 21.8403 278.906 24.4408 278.853 27.0657C278.908 29.6941 278.33 32.2971 277.169 34.6551Z" fill="black"/>
<path d="M187.526 0.246094H186.249V53.4012H187.526V0.246094Z" fill="black"/>
</g>
<defs>
<clipPath id="clip0_422_5194">
<rect width="293" height="54" fill="white"/>
</clipPath>
</defs>
</svg>
