<svg width="18" height="18" viewBox="0 0 18 18" fill="none" xmlns="http://www.w3.org/2000/svg">
<rect width="18" height="18" rx="9" fill="#CACCD0"/>
<path fill-rule="evenodd" clip-rule="evenodd" d="M11.831 12.8916C12.1239 13.1845 12.5987 13.1845 12.8916 12.8916C13.1845 12.5987 13.1845 12.1239 12.8916 11.831L10.1657 9.10505L13.1023 6.16843C13.3952 5.87554 13.3952 5.40066 13.1023 5.10777C12.8094 4.81488 12.3346 4.81488 12.0417 5.10777L9.10505 8.04439L5.95806 4.8974C5.66517 4.60451 5.1903 4.60451 4.8974 4.8974C4.60451 5.1903 4.60451 5.66517 4.8974 5.95806L8.04439 9.10505L5.10812 12.0413C4.81522 12.3342 4.81522 12.8091 5.10812 13.102C5.40101 13.3949 5.87588 13.3949 6.16878 13.102L9.10505 10.1657L11.831 12.8916Z" fill="white"/>
</svg>
