<svg width="72" height="72" viewBox="0 0 72 72" fill="none" xmlns="http://www.w3.org/2000/svg">
<path opacity="0.21" d="M36.0004 12.8569C29.6111 12.8569 24.3834 18.0641 24.3834 24.4284C24.3834 26.3724 24.8597 28.1794 25.7155 29.7917C22.182 28.9335 17.8779 28.2855 12.7664 28.2855H10.2861L17.0627 55.2855H18.5749C25.1695 55.2855 29.2238 56.2267 31.584 57.0945C32.7651 57.5304 33.5124 57.9604 33.9442 58.2382C34.374 58.5178 34.4282 58.5409 34.4282 58.5409L34.9704 59.1427H37.0285L37.5745 58.539C37.5745 58.539 37.6268 58.5178 38.0586 58.2382C38.7998 57.7712 39.5907 57.3877 40.4168 57.0945C42.777 56.2267 46.8314 55.2855 53.426 55.2855H54.9381L61.7147 28.2855H59.2345C54.1443 28.2855 49.8479 28.8949 46.3473 29.7319C47.1952 28.0925 47.6311 26.2725 47.6174 24.4284C47.6174 18.0641 42.3898 12.8569 36.0004 12.8569Z" fill="url(#paint0_linear_2484_74)"/>
<path d="M36.0004 9C28.5754 9 22.5004 15.075 22.5004 22.5C22.5004 24.768 23.0539 26.8762 24.0484 28.7572C19.9422 27.756 14.9404 27 9.00041 27H6.11816L13.9932 58.5H15.7504C23.4139 58.5 28.1254 59.598 30.8682 60.6105C32.2407 61.119 33.1092 61.6208 33.6109 61.9448C34.1104 62.271 34.1734 62.298 34.1734 62.298L34.8034 63H37.1952L37.8297 62.2957C37.8297 62.2957 37.8904 62.271 38.3922 61.9448C39.2535 61.4 40.1726 60.9525 41.1327 60.6105C43.8754 59.598 48.5869 58.5 56.2504 58.5H58.0077L65.8827 27H63.0004C57.0852 27 52.0924 27.711 48.0244 28.6875C49.0098 26.7748 49.5162 24.6515 49.5004 22.5C49.5004 15.075 43.4254 9 36.0004 9ZM36.0004 13.5C41.0022 13.5 45.0004 17.4983 45.0004 22.5C45.0004 27.5018 41.0022 31.5 36.0004 31.5C30.9987 31.5 27.0004 27.5018 27.0004 22.5C27.0004 17.4983 30.9987 13.5 36.0004 13.5ZM11.9524 31.7812C18.9499 32.1232 24.6627 33.336 28.4067 34.7355C31.4217 35.8605 32.9067 36.729 33.7504 37.2645V56.952C33.3454 56.7675 32.9764 56.5763 32.4837 56.3895C29.4439 55.2645 24.4512 54.3172 17.5077 54.1395L11.9524 31.7812ZM60.0462 31.7812L54.4932 54.1418C47.5497 54.3172 42.5569 55.2668 39.5149 56.3918C39.0244 56.5762 38.6554 56.7675 38.2504 56.9543V37.2668C39.0942 36.72 40.5702 35.8425 43.5244 34.7355C47.2414 33.336 52.9632 32.1255 60.0462 31.7812Z" fill="url(#paint1_linear_2484_74)"/>
<defs>
<linearGradient id="paint0_linear_2484_74" x1="35.9032" y1="59.1426" x2="58.4089" y2="30.2153" gradientUnits="userSpaceOnUse">
<stop stop-color="#057CE7"/>
<stop offset="0.505" stop-color="#2696FA"/>
<stop offset="1" stop-color="#05B0E7"/>
</linearGradient>
<linearGradient id="paint1_linear_2484_74" x1="35.8875" y1="62.9999" x2="62.1693" y2="29.3516" gradientUnits="userSpaceOnUse">
<stop stop-color="#057CE7"/>
<stop offset="0.505" stop-color="#2696FA"/>
<stop offset="1" stop-color="#05B0E7"/>
</linearGradient>
</defs>
</svg>
