<svg width="60" height="54" viewBox="0 0 60 54" fill="none" xmlns="http://www.w3.org/2000/svg">
<path d="M29.9999 0C22.5749 0 16.4999 6.075 16.4999 13.5C16.4999 15.768 17.0534 17.8762 18.0479 19.7572C13.9417 18.756 8.93993 18 2.99993 18H0.117676L7.99268 49.5H9.74993C17.4134 49.5 22.1249 50.598 24.8677 51.6105C26.2402 52.119 27.1087 52.6208 27.6104 52.9448C28.1099 53.271 28.1729 53.298 28.1729 53.298L28.8029 54H31.1947L31.8292 53.2957C31.8292 53.2957 31.8899 53.271 32.3917 52.9448C33.253 52.4 34.1721 51.9525 35.1322 51.6105C37.8749 50.598 42.5864 49.5 50.2499 49.5H52.0072L59.8822 18H56.9999C51.0847 18 46.0919 18.711 42.0239 19.6875C43.0093 17.7748 43.5158 15.6515 43.4999 13.5C43.4999 6.075 37.4249 0 29.9999 0ZM29.9999 4.5C35.0017 4.5 38.9999 8.49825 38.9999 13.5C38.9999 18.5018 35.0017 22.5 29.9999 22.5C24.9982 22.5 20.9999 18.5018 20.9999 13.5C20.9999 8.49825 24.9982 4.5 29.9999 4.5ZM5.95193 22.7812C12.9494 23.1232 18.6622 24.336 22.4062 25.7355C25.4212 26.8605 26.9062 27.729 27.7499 28.2645V47.952C27.3449 47.7675 26.9759 47.5763 26.4832 47.3895C23.4434 46.2645 18.4507 45.3172 11.5072 45.1395L5.95193 22.7812ZM54.0457 22.7812L48.4927 45.1418C41.5492 45.3172 36.5564 46.2668 33.5144 47.3918C33.0239 47.5762 32.6549 47.7675 32.2499 47.9543V28.2668C33.0937 27.72 34.5697 26.8425 37.5239 25.7355C41.2409 24.336 46.9627 23.1255 54.0457 22.7812Z" fill="url(#paint0_linear_2402_25)"/>
<defs>
<linearGradient id="paint0_linear_2402_25" x1="0.117676" y1="0" x2="60.0766" y2="0.216794" gradientUnits="userSpaceOnUse">
<stop stop-color="#057CE7"/>
<stop offset="0.505" stop-color="#2696FA"/>
<stop offset="1" stop-color="#05B0E7"/>
</linearGradient>
</defs>
</svg>
