<svg width="8" height="8" viewBox="0 0 8 8" fill="none" xmlns="http://www.w3.org/2000/svg">
<path fill-rule="evenodd" clip-rule="evenodd" d="M7.73961 1.33923C8.03715 1.04168 8.03715 0.559273 7.73961 0.261731C7.44207 -0.0358114 6.95966 -0.0358114 6.66211 0.261731L4.00086 2.92298L1.33972 0.261835C1.04217 -0.0357075 0.559762 -0.0357072 0.26222 0.261835C-0.0353224 0.559377 -0.0353228 1.04179 0.26222 1.33933L2.92337 4.00048L0.262219 6.66163C-0.0353233 6.95917 -0.0353229 7.44158 0.262219 7.73912C0.559762 8.03666 1.04217 8.03666 1.33972 7.73912L4.00086 5.07797L6.66211 7.73923C6.95966 8.03677 7.44207 8.03677 7.73961 7.73923C8.03715 7.44168 8.03715 6.95927 7.73961 6.66173L5.07836 4.00048L7.73961 1.33923Z" fill="#0077FF"/>
</svg>
