<svg width="174" height="70" viewBox="0 0 174 70" fill="none" xmlns="http://www.w3.org/2000/svg">
<path d="M108.982 39.5483H111.723C111.027 42.1639 109.53 44.5075 107.254 46.5372C104.977 48.5669 102.174 49.5922 98.8646 49.5922C94.9018 49.5922 91.5854 48.1972 88.9155 45.4072C86.2806 42.5824 84.9597 38.9554 84.9527 34.5263C84.9456 30.0972 86.2666 26.4842 88.9155 23.6873C91.5924 20.8694 94.9088 19.4604 98.8646 19.4604C102.237 19.4604 105.041 20.4648 107.254 22.4736C109.509 24.4615 110.985 26.7214 111.723 29.2951H108.982C108.75 28.7371 108.498 28.1931 108.224 27.663C107.865 26.9732 107.426 26.3271 106.917 25.7379C106.35 25.0462 105.699 24.4276 104.977 23.8965C104.173 23.3072 103.275 22.8546 102.322 22.5573C101.212 22.1651 100.042 21.9669 98.8646 21.9714C95.6396 21.9714 92.9204 23.1432 90.7282 25.4868C88.536 27.8304 87.4821 30.8226 87.4821 34.5263C87.4821 38.23 88.5571 41.2641 90.7282 43.6077C92.8993 45.9513 95.6396 47.0812 98.8646 47.0812C100.341 47.0971 101.804 46.8123 103.165 46.2442C104.337 45.7678 105.388 45.0388 106.242 44.1099C106.921 43.3682 107.515 42.5542 108.013 41.6826C108.408 41.0057 108.733 40.2906 108.982 39.5483ZM116.17 49.1737V28.2489H126.92C128.607 28.2489 129.977 28.772 131.01 29.8392C132.085 30.8645 132.612 32.2246 132.612 33.8986C132.612 35.3215 132.19 36.5142 131.347 37.4558C131.007 37.892 130.576 38.249 130.082 38.502V38.7113C130.636 38.9268 131.139 39.2546 131.558 39.6738C132.04 40.149 132.42 40.717 132.674 41.3431C132.928 41.9692 133.05 42.6401 133.033 43.3148C133.033 45.0934 132.506 46.5163 131.431 47.5834C130.356 48.6506 128.923 49.1737 127.131 49.1737H116.17ZM118.7 46.872H126.92C127.995 46.872 128.838 46.5581 129.492 45.9094C129.829 45.5675 130.092 45.1613 130.266 44.7152C130.44 44.2692 130.521 43.7927 130.504 43.3148C130.504 42.2476 130.166 41.4106 129.492 40.7619C128.817 40.1133 127.995 39.7575 126.92 39.7575H118.7V46.872ZM118.7 37.4558H126.71C127.155 37.465 127.597 37.3845 128.01 37.2191C128.423 37.0536 128.798 36.8067 129.113 36.4933C129.438 36.1453 129.691 35.737 129.858 35.2918C130.024 34.8465 130.1 34.3731 130.082 33.8986C130.092 33.4669 130.015 33.0375 129.857 32.6353C129.699 32.233 129.462 31.8658 129.16 31.5546C128.859 31.2435 128.498 30.9946 128.099 30.8223C127.7 30.65 127.271 30.5577 126.836 30.5506H118.7V37.4558ZM138.535 37.4558H153.079C152.974 35.3633 152.236 33.6684 150.887 32.3501C149.538 31.0319 147.915 30.3414 145.912 30.3414C143.91 30.3414 142.202 30.99 140.853 32.2664C139.504 33.5429 138.745 35.2587 138.535 37.4558ZM152.236 43.3148H154.976C154.342 45.0483 153.25 46.5806 151.814 47.7508C150.36 48.9854 148.378 49.5922 145.912 49.5922C142.982 49.5922 140.6 48.6087 138.745 46.6209C136.891 44.633 136.005 41.9965 136.005 38.7113C136.005 35.4261 136.912 32.7896 138.745 30.8017C140.579 28.8138 142.982 27.8304 145.912 27.8304C148.695 27.8304 150.992 28.8138 152.826 30.7599C154.66 32.7059 155.608 35.1959 155.608 38.2928C155.612 38.6989 155.584 39.1046 155.524 39.5064C155.489 39.6573 155.475 39.8121 155.482 39.9668H138.535C138.767 42.122 139.568 43.8379 140.938 45.1561C141.597 45.7882 142.376 46.2838 143.23 46.6143C144.084 46.9448 144.996 47.1035 145.912 47.0812C147.451 47.0812 148.758 46.7046 149.833 45.9513C150.823 45.2625 151.644 44.3614 152.236 43.3148ZM163.829 49.1737V30.7599H156.662V28.2489H173.525V30.7599H166.359V49.1737H163.829Z" fill="black"/>
<mask id="mask0_422_5352" style="mask-type:luminance" maskUnits="userSpaceOnUse" x="0" y="0" width="70" height="70">
<path d="M69.5597 0H0V69.0519H69.5597V0Z" fill="white"/>
</mask>
<g mask="url(#mask0_422_5352)">
<path d="M3.92065 9.03964e-06H65.639C66.1542 -0.00109434 66.6646 0.0988226 67.1407 0.294024C67.6169 0.489225 68.0495 0.775867 68.4138 1.13749C68.7781 1.49912 69.0669 1.92861 69.2635 2.40131C69.4602 2.87401 69.5608 3.38061 69.5597 3.89203V65.1599C69.5608 65.6713 69.4602 66.1779 69.2635 66.6507C69.0669 67.1233 68.7781 67.5528 68.4138 67.9145C68.0495 68.2761 67.6169 68.5627 67.1407 68.7579C66.6646 68.9531 66.1542 69.0531 65.639 69.0519H3.92065C3.40547 69.0531 2.89514 68.9531 2.41897 68.7579C1.94279 68.5627 1.51014 68.2761 1.14586 67.9145C0.781572 67.5528 0.492823 67.1233 0.296186 66.6507C0.0995492 66.1779 -0.00110239 65.6713 9.10611e-06 65.1599V3.89203C-0.00110239 3.38061 0.0995492 2.87401 0.296186 2.40131C0.492823 1.92861 0.781572 1.49912 1.14586 1.13749C1.51014 0.775867 1.94279 0.489225 2.41897 0.294024C2.89514 0.0988226 3.40547 -0.00109434 3.92065 9.03964e-06Z" fill="#5701C5"/>
</g>
<path d="M39.081 43.6076L47.0277 57.2715C47.5546 56.9995 48.0605 56.7065 48.5453 56.3926L40.5776 42.6869L50.8218 54.8023C51.2856 54.4466 51.7282 54.07 52.1709 53.6724L41.9899 41.6406L54.1312 51.7473C54.5317 51.3079 54.9111 50.8685 55.2694 50.4081L49.4728 45.5745L40.3457 38.0416C39.6432 39.1179 38.635 39.9633 37.4486 40.471C36.2622 40.9787 34.9508 41.1259 33.6802 40.8939C32.4096 40.662 31.2367 40.0614 30.3098 39.1679C29.3829 38.2745 28.7437 37.1284 28.4728 35.8744C28.2019 34.6204 28.3115 33.3148 28.7878 32.1226C29.2642 30.9305 30.0858 29.9052 31.1489 29.1765C32.212 28.4477 33.4688 28.0482 34.7606 28.0283C36.0524 28.0084 37.3211 28.3691 38.4065 29.0648C39.1882 29.5652 39.8501 30.2295 40.3457 31.0108L49.7468 23.2686L55.2694 18.6652C54.9111 18.2048 54.5317 17.7654 54.1312 17.326L41.9688 27.4536L52.1709 15.38C51.7282 14.9824 51.2856 14.6057 50.8218 14.25L40.683 26.3027L48.6086 12.6807C48.1027 12.3668 47.5968 12.0738 47.0698 11.8018L39.1021 25.5076L44.5615 10.651C44.0134 10.4417 43.4654 10.2325 42.8962 10.0441L37.4579 24.9008L40.2192 9.35362C39.6501 9.22807 39.0599 9.14437 38.4908 9.06067L35.7506 24.5241V8.8305C35.4765 8.8305 35.1814 8.80957 34.8863 8.80957C34.5912 8.80957 34.2961 8.80957 33.98 8.8305V24.6915L31.1976 9.03974C30.6074 9.12344 30.0382 9.22807 29.4691 9.35362L32.2304 24.8589L26.8132 10.0651C26.2441 10.2534 25.696 10.4417 25.148 10.6719L30.5441 25.4239L22.6396 11.8437C22.1127 12.1157 21.6068 12.4086 21.122 12.7225L29.0054 26.2818L18.8876 14.2919C18.4239 14.6476 17.9812 15.0242 17.5386 15.4218L27.7407 27.4745L15.5572 17.326C15.1567 17.7654 14.7773 18.2048 14.4189 18.6652L26.5392 28.7509L12.838 20.9041C12.5219 21.4063 12.2268 21.9085 11.9527 22.4107L25.675 30.2784L10.7723 24.9008C10.5615 25.4448 10.3507 25.9889 10.1821 26.5538L25.148 31.9524L9.48652 29.2322C9.3575 29.7985 9.259 30.3713 9.19142 30.948L24.7686 33.6683H8.95955C8.95955 33.9403 8.93848 34.2332 8.93848 34.5262C8.93848 34.8191 8.93848 35.1121 8.95955 35.426H24.6632L9.19142 38.1253C9.27573 38.7112 9.38113 39.2761 9.48652 39.8411L25.1269 37.0999L10.2032 42.4985C10.3929 43.0635 10.5826 43.6076 10.8145 44.1516L25.7803 38.753L11.9738 46.6626C12.2549 47.1857 12.55 47.6879 12.8591 48.1692L26.5813 40.3014L14.4611 50.4081C14.8194 50.8685 15.1988 51.3079 15.5993 51.7473L27.7196 41.6616L17.5597 53.6933C18.0023 54.0909 18.445 54.4675 18.9087 54.8233L29.1108 42.7706L21.1852 56.4136C21.6911 56.7274 22.197 57.0204 22.7029 57.2924L30.5863 43.7331L25.1901 58.4433C25.7382 58.6525 26.2862 58.8618 26.8554 59.0501L32.2515 44.319L29.5113 59.7615C30.0804 59.8871 30.6706 59.9917 31.2397 60.0754L34.001 44.5492V60.2637C34.2961 60.2846 34.5912 60.2846 34.9074 60.2846C35.2236 60.2846 35.4765 60.2846 35.7716 60.2637V44.6538L38.5119 60.0126C39.1021 59.9289 39.6712 59.8243 40.2403 59.7197L37.479 44.2353L42.8962 59.0082C43.4654 58.8199 44.0134 58.6316 44.5615 58.4014" fill="white"/>
</svg>
